<svg width="50" height="26" viewBox="0 0 104 32" fill="none" xmlns="http://www.w3.org/2000/svg">
<path d="M41.5377 27.538C42.8233 27.538 43.8872 27.3577 44.7738 26.9972C45.6161 26.6366 46.3697 26.0957 47.0347 25.4197C47.3893 26.1408 47.877 26.6817 48.4533 26.9972C49.0739 27.3577 49.8275 27.4929 50.7142 27.4929C51.3791 27.4929 52.0884 27.4028 52.7977 27.2676C53.507 27.1324 54.0833 26.9972 54.438 26.8619V24.7436L52.9307 24.5633C52.6647 24.5183 52.4874 24.4281 52.3544 24.2929C52.2214 24.1577 52.1328 23.9324 52.1328 23.5718V9.5549L51.3791 8.87885C50.8472 8.87885 50.2265 8.87885 49.6059 8.92392C48.9853 8.96899 48.3646 9.01406 47.6997 9.05913C47.0347 9.1042 46.4141 9.19434 45.7934 9.28448C45.1728 9.37462 44.5965 9.50983 44.0202 9.64505V11.9887L45.7934 12.3943C46.0151 12.4394 46.1924 12.5746 46.3254 12.7098C46.4584 12.8901 46.5027 13.0704 46.5027 13.2957V23.6619C46.1037 23.8873 45.6604 24.0676 45.2615 24.2028C44.8181 24.338 44.4192 24.3831 43.9759 24.3831C43.1336 24.3831 42.5129 24.1126 42.114 23.5718C41.715 23.031 41.4933 22.0394 41.4933 20.5521V9.5549L40.7397 8.87885C40.2077 8.87885 39.6314 8.87885 39.0108 8.92392C38.3902 8.96899 37.7695 9.01406 37.1489 9.05913C36.5283 9.14927 35.9076 9.19434 35.287 9.32955C34.6664 9.46476 34.0901 9.5549 33.5581 9.69011V12.0338L35.1983 12.4394C35.42 12.4845 35.5973 12.6197 35.7303 12.7549C35.8633 12.9352 35.9076 13.1155 35.9076 13.3408V21.3634C35.9076 23.4817 36.3509 25.0141 37.2819 26.0507C38.2128 27.0873 39.6758 27.538 41.5377 27.538ZM61.4423 27.538C62.5505 27.538 63.5258 27.3577 64.4124 26.9521C65.2991 26.5915 66.0527 26.0507 66.629 25.3295C66.9393 26.0957 67.4269 26.6817 68.0476 26.9521C68.6682 27.2676 69.4218 27.4028 70.3085 27.4028C70.9291 27.4028 71.5941 27.3126 72.3034 27.1774C73.0126 27.0422 73.589 26.907 73.9879 26.7718V24.6535L72.4363 24.4732C72.1704 24.4281 71.993 24.338 71.86 24.2028C71.7271 24.0676 71.6384 23.8422 71.6384 23.4817V15.8197C71.6384 13.5211 71.0621 11.8084 69.9538 10.6366C68.8455 9.46476 67.028 8.87885 64.5011 8.87885C62.4175 8.87885 60.733 9.28448 59.403 10.0507C58.1174 10.8619 57.1865 11.8986 56.6989 13.2507L57.9844 14.3774C58.6494 13.7465 59.403 13.2957 60.201 12.9803C60.999 12.6648 61.8856 12.5296 62.8165 12.5296C63.8805 12.5296 64.7228 12.7549 65.2991 13.2507C65.8754 13.7465 66.1857 14.6479 66.1857 15.9098V17.6676L63.0382 17.8479C62.1516 17.8929 61.2649 18.0281 60.467 18.2986C59.6247 18.5239 58.9154 18.8845 58.2948 19.3352C57.6741 19.7859 57.1422 20.3267 56.7875 20.9577C56.4329 21.5887 56.2112 22.3549 56.2112 23.1662C56.2112 24.4732 56.6988 25.5549 57.6298 26.3662C58.6051 27.1324 59.8464 27.538 61.4423 27.538ZM63.7918 24.4281C63.1268 24.4281 62.6835 24.2479 62.4175 23.9324C62.1516 23.6169 62.0186 23.1211 62.0186 22.445C62.0186 21.769 62.1959 21.1831 62.5505 20.6873C62.9052 20.1915 63.6145 19.9211 64.5898 19.831L66.2743 19.7408V23.6169C65.9197 23.8873 65.5207 24.0676 65.1217 24.2028C64.7228 24.338 64.2794 24.4281 63.7918 24.4281ZM85.6026 27.1774V24.9239L84.5387 24.6084C84.317 24.5183 84.1397 24.4281 84.0511 24.2929C83.9181 24.1577 83.8737 23.9774 83.8737 23.707V13.0253C84.317 12.7549 84.7603 12.5746 85.2037 12.4394C85.647 12.3042 86.0903 12.2591 86.5336 12.2591C87.4645 12.2591 88.1295 12.5746 88.5285 13.1605C88.9718 13.7915 89.1491 14.8281 89.1491 16.2704V23.707C89.1491 23.9324 89.1048 24.1577 88.9718 24.2929C88.8388 24.4281 88.6615 24.5183 88.4398 24.6084L87.4202 24.9239V27.1774H97.1287V24.9239L95.4441 24.6084C95.2225 24.5633 95.0451 24.4732 94.9121 24.338C94.7792 24.2028 94.7348 23.9774 94.7348 23.7521V15.6845C94.7348 13.5211 94.3358 11.8535 93.5822 10.6817C92.8286 9.50983 91.41 8.92392 89.3264 8.92392C88.1738 8.92392 87.1099 9.1042 86.1346 9.50983C85.1593 9.91547 84.317 10.5014 83.5634 11.2676L83.2531 9.5549L82.4995 8.83378C81.4355 8.83378 80.3273 8.92392 79.1303 9.05913C77.9334 9.19434 76.7808 9.41969 75.7168 9.73519V12.0338L77.6231 12.4394C77.8447 12.4845 78.022 12.5746 78.155 12.7549C78.288 12.9352 78.3324 13.1155 78.3324 13.3408V23.707C78.3324 23.9324 78.288 24.1577 78.155 24.2929C78.022 24.4281 77.8447 24.5633 77.6231 24.5633L75.9385 24.8788V27.1324H85.6026V27.1774Z" fill="#FEE622"/>
<path d="M32.6719 27.5831L29.0811 24.4732C30.6327 21.9944 31.475 19.0648 31.475 15.9549V15.8197C31.3863 8.87887 26.9976 2.79437 20.4809 0.721127C18.9737 0.225352 17.3777 0 15.7375 0C10.6838 0 5.89602 2.52394 2.92584 6.71549C1.01961 9.41972 0 12.6648 0 16C0 19.4704 1.06394 22.7155 3.05884 25.5099C6.02901 29.5662 10.7281 32 15.7375 32C17.4221 32 19.1067 31.7296 20.7026 31.1887C22.6531 30.5127 24.382 29.5211 25.845 28.2592L29.4358 31.4141C29.8791 31.8197 30.4554 32 31.0317 32C31.6967 32 32.4059 31.6845 32.8936 31.1437C33.8245 30.0169 33.7359 28.4394 32.6719 27.5831ZM15.7818 26.8169C9.88581 26.8169 5.09806 21.9493 5.09806 15.9549C5.09806 9.96056 9.88581 5.09296 15.7818 5.09296C21.6778 5.09296 26.4656 9.96056 26.4656 15.9549C26.4656 17.8028 26.0223 19.5155 25.2243 21.0479C25.047 21.4085 24.8253 21.769 24.6037 22.1296C24.515 22.3099 24.382 22.4451 24.249 22.5803L24.2047 22.6254C24.0717 22.7606 23.9831 22.9408 23.8501 23.0761C23.8501 23.0761 23.8501 23.0761 23.8057 23.1211C23.2738 23.7521 22.6531 24.293 21.9882 24.7887C20.2593 26.0507 18.087 26.8169 15.7818 26.8169Z" fill="#FEE622"/>
<path d="M101.473 27.3579C102.869 27.3579 104 26.2077 104 24.7889C104 23.3701 102.869 22.2199 101.473 22.2199C100.078 22.2199 98.9463 23.3701 98.9463 24.7889C98.9463 26.2077 100.078 27.3579 101.473 27.3579Z" fill="#FEE622"/>
</svg>
